<?xml version="1.0" encoding="utf-8"?>
<!-- Generator: Adobe Illustrator 21.0.0, SVG Export Plug-In . SVG Version: 6.00 Build 0)  -->
<svg version="1.1" id="object" xmlns="http://www.w3.org/2000/svg" xmlns:xlink="http://www.w3.org/1999/xlink" x="0px" y="0px"
	 width="2000px" height="2000px" viewBox="0 0 2000 2000" enable-background="new 0 0 2000 2000" xml:space="preserve">
<g>
	<path fill="#6DC8CD" d="M1813.3,957.8c-8.1,2.5-16.9,4.7-26.4,6.8c-9.3,2-19.5,3.7-30.4,5.1c-2.2,0.3-4.4,0.6-6.6,0.8
		c-2.2,0.3-4.5,0.6-6.8,0.8c-2.5,0.3-5,0.5-7.6,0.8c-4.5,0.3-9.3,0.8-14.1,1c-1.7,0.1-3.6,0.3-5.4,0.3c-3.3,0.2-6.6,0.4-10,0.5
		c-2.6,0.1-5.3,0.2-8,0.3c-1.9,0.1-3.8,0.1-5.7,0.2c-2,0-4,0.1-6.1,0.1c-45.2,0.8-99.6-2.2-164.8-9.9
		c-199.7-23.7-302.6-93.9-400-120.4c8.5-41.7,9.7-78.6,4.8-110.7c-3.1-21.2-8.9-40.4-17-57.6c-5.4-11.8-12-22.7-19.4-32.6
		c-44-58.8-119.4-84.8-198.9-81.1c-96,4.5-149.5,81.6-155.9,166.4c-2.1,26.7,0.6,54.2,8,80.3c5.4,19.6,13.7,38.5,24.6,55.8
		c15.9,25.1,26.6,54,33.6,83.8c-214.8,185.7-108.4,427.2,5.6,468.5c1.2,0.5,2.4,0.9,3.7,1.3c122.1,39.5,212.8,79.1,257.1-26.8
		c39.8-95.3,119.3-145.4,217.9-181.6c18.2-6.6,38.3,4.2,42.8,23c51.6,214.1-72.4,319.1-72.4,319.1
		c123.6,69.9,107.3,228.6,89.7,308.3c-5.8,26.2-34.3,40.1-58.8,29.2c-168.2-75-235.5-188.9-256-232.4c-4.8-10.2-16.3-15.4-27.2-12.5
		c-444.8,115.1-786.9-50.2-882.8-477.5C43.1,821,237.5,561.9,320.4,470.3c22.3-24.6,22.4-62.4,0-87
		c-31.5-34.5-77.2-72.4-119.6-104.6C151.5,241.3,164,164.5,222.3,144c355.8-124.4,500.9,104,500.9,104s442-155.8,716.5-4.7
		c274.5,151.2,321,453.6,321,453.6s115.1,97.7,132.6,151.2C1903.7,880.4,1898.3,931.5,1813.3,957.8z"/>
	<path fill="#D3CCC5" d="M806.7,1416.8c-69.6,0.6-163.2-12.1-240.4-70.4c-54.5-41.1-100.8-105-124.6-202.8
		c-48.8-200.6,95.6-342.8,293-415.1c-2.1,26.7,0.6,54.2,8,80.3c5.4,19.6,13.7,38.5,24.6,55.8c15.9,25.1,26.6,54,33.6,83.8
		C586.3,1134,692.7,1375.5,806.7,1416.8z"/>
	<path fill="#D3CCC5" d="M1813.3,957.8c-8.1,2.5-16.9,4.7-26.4,6.8c-9.3,2-19.5,3.7-30.4,5.1c-2.2,0.3-4.4,0.6-6.6,0.8
		c-2.2,0.3-4.5,0.6-6.8,0.8c-2.5,0.3-5,0.5-7.6,0.8c-4.5,0.3-9.3,0.8-14.1,1c-1.7,0.1-3.6,0.3-5.4,0.3c-3.3,0.2-6.6,0.4-10,0.5
		c-2.6,0.1-5.3,0.2-8,0.3c-1.9,0.1-3.8,0.1-5.7,0.2c-2,0-4,0.1-6.1,0.1c-45.2,0.8-99.6-2.2-164.8-9.9
		c-199.7-23.7-302.6-93.9-400-120.4c8.5-41.7,9.7-78.6,4.8-110.7c-3.1-21.2-8.9-40.4-17-57.6c37,2.3,73,7.1,107.4,14.2
		C1438.8,736.3,1673.5,868.7,1813.3,957.8z"/>
	<path fill="#EAE6E1" d="M806.7,1416.8c-69.6,0.6-163.2-12.1-240.4-70.4c-27.9-36.9-50.7-83.9-65.2-143.5
		c-44.5-182.8,71.5-317.1,241.7-394.2c5.4,19.6,13.7,38.5,24.6,55.8c15.9,25.1,26.6,54,33.6,83.8
		C586.3,1134,692.7,1375.5,806.7,1416.8z"/>
	<path fill="#EAE6E1" d="M1786.8,964.5c-9.3,2-19.5,3.7-30.4,5.1c-2.2,0.3-4.4,0.6-6.6,0.8c-2.2,0.3-4.5,0.6-6.8,0.8
		c-2.5,0.3-5,0.5-7.6,0.8c-4.5,0.3-9.3,0.8-14.1,1c-1.7,0.1-3.6,0.3-5.4,0.3c-3.3,0.2-6.6,0.4-10,0.5c-2.6,0.1-5.3,0.2-8,0.3
		c-1.9,0.1-3.8,0.1-5.7,0.2c-2,0-4,0.1-6.1,0.1c-45.2,0.8-99.6-2.2-164.8-9.9c-199.7-23.7-302.6-93.9-400-120.4
		c8.5-41.7,9.7-78.6,4.8-110.7c51.8,0.8,102.4,6.1,149.8,16C1457.3,787.2,1647.2,882.4,1786.8,964.5z"/>
	<g>
		<path fill="#337DC0" d="M1567.9,681.6c-0.8,0-1.5-0.1-2.3-0.1c-9.5-1.3-16.3-10-15-19.5c1-8,1.1-31.4-10-44
			c-5.7-6.5-14.2-9.6-25.9-9.6c-11.9,0-20.3,3.1-25.5,9.4c-9.7,11.6-8.3,33.2-7.1,39.8c1.8,9.5-4.5,18.6-13.9,20.4
			c-9.5,1.8-18.6-4.5-20.4-13.9c-0.8-4.3-7.2-42.4,14.5-68.5c8.3-10,24.2-22,52.4-22c27.4,0,43.5,11.7,52.2,21.6
			c23.4,26.7,18.9,66.9,18.3,71.4C1584.1,675.2,1576.6,681.6,1567.9,681.6z"/>
	</g>
	<path fill="#1671BA" d="M1121.1,844.1c-2,9.6-4.3,19.5-7.1,29.7c-38.2,139.6-151.6,220.7-230,261.5c-11.1,5.8-22.9,6.8-33.6,4.2
		c-21.6-5-38.9-24.7-37.8-49.8c1.7-40.9,0.1-92.4-11.4-141.5c-7-29.8-17.7-58.7-33.6-83.8c-11-17.3-19.2-36.1-24.6-55.8
		c-7.5-26.1-10.1-53.5-8-80.3c6.4-84.7,59.9-161.8,155.9-166.4c79.5-3.7,154.9,22.3,198.9,81.1c7.4,9.9,14,20.8,19.4,32.6
		c8,17.2,13.8,36.4,17,57.6C1130.8,765.5,1129.6,802.4,1121.1,844.1z"/>
	<path fill="#337DC0" d="M1114,873.8c-38.2,139.6-151.6,220.7-230,261.5c-11.1,5.8-22.9,6.8-33.6,4.2c-1-4.1-1.4-8.5-1.2-13.1
		c2.7-65.7-2.9-158.6-45.1-225.3c-72.2-114-25.6-295.4,123.2-302.4c60.4-2.9,118.6,11.6,162.2,44.5
		C1128,694.5,1142.2,770.8,1114,873.8z"/>
</g>
</svg>
