<?xml version="1.0" encoding="utf-8"?>
<!-- Generator: Adobe Illustrator 25.4.1, SVG Export Plug-In . SVG Version: 6.00 Build 0)  -->
<svg version="1.1" id="Color" xmlns="http://www.w3.org/2000/svg" xmlns:xlink="http://www.w3.org/1999/xlink" x="0px" y="0px"
	 viewBox="0 0 512 512" enable-background="new 0 0 512 512" xml:space="preserve">
<path fill="#4B90A0" d="M472.5,472h-224V120c0-17.68,14.32-32,32-32h16l11.6,23.12c2.72,5.44,8.24,8.88,14.32,8.88h76.16
	c6.08,0,11.6-3.44,14.32-8.88L424.5,88h16c17.68,0,32,14.32,32,32V472z"/>
<path fill="#75BCD0" d="M264.5,448V120c0-8.837,7.163-16,16-16h0.002c3.754,0,7.186,2.117,8.87,5.472l4.432,8.825
	c5.45,10.853,16.556,17.703,28.7,17.703h76.073c12.101,0,23.166-6.828,28.593-17.643l4.457-8.882
	c1.684-3.356,5.117-5.474,8.872-5.474h0c8.837,0,16,7.163,16,16v328c0,4.418-3.582,8-8,8h-176C268.082,456,264.5,452.418,264.5,448z
	"/>
<circle fill="#54917F" cx="360.5" cy="424" r="24"/>
<path fill="#C96744" d="M405.38,272c3.2,0,5.76,2.72,5.6,6l-3.12,52.88c-1.2,20.88-18.48,37.12-39.36,37.12h-16
	c-20.88,0-38.16-16.24-39.36-37.12L310.02,278c-0.16-3.28,2.4-6,5.6-6H405.38z"/>
<path fill="#9B352D" d="M410.98,278l-3.12,52.88c-1.2,20.88-18.48,37.12-39.36,37.12h-16c-14.96,0-28-8.32-34.64-20.72
	c5.6,3.04,11.92,4.72,18.64,4.72h16c20.88,0,38.16-16.24,39.36-37.12l2.56-42.88h10.96C408.58,272,411.14,274.72,410.98,278z"/>
<path fill="#C96744" d="M216.02,184c4.56,0,8.24,3.84,8,8.48l-4.4,74.8c-1.76,29.6-26.24,52.72-55.92,52.72h-22.4
	c-29.68,0-54.16-23.12-55.92-52.72l-4.4-74.8c-0.24-4.64,3.44-8.48,8-8.48H216.02z"/>
<path fill="#9B352D" d="M224.02,192.48l-4.4,74.8c-1.76,29.6-26.24,52.72-55.92,52.72h-22.4c-21.52,0-40.4-12.16-49.68-30.24
	c7.68,4,16.4,6.24,25.68,6.24h22.4c29.68,0,54.16-23.12,55.92-52.72l3.52-59.28h16.88C220.58,184,224.26,187.84,224.02,192.48z"/>
<rect x="472.5" y="320" fill="#9E7059" width="32" height="48"/>
<rect x="8.5" y="320" fill="#9E7059" width="240" height="48"/>
<rect x="472.5" y="344" fill="#995B3F" width="32" height="24"/>
<rect x="8.5" y="344" fill="#995B3F" width="240" height="24"/>
<path fill="#E6E6E6" d="M248.5,472h224c0,17.68-14.32,32-32,32h-160C262.82,504,248.5,489.68,248.5,472z"/>
<path fill="#E6E6E6" d="M424.5,88l-11.6,23.12c-2.72,5.44-8.24,8.88-14.32,8.88h-76.16c-6.08,0-11.6-3.44-14.32-8.88L296.5,88H424.5
	z"/>
<path fill="#C1AEAE" d="M472.5,472c0,17.68-14.32,32-32,32h-160c-12.96,0-24.16-7.76-29.12-18.88c4,1.84,8.48,2.88,13.12,2.88h160
	c11.84,0,22.16-6.4,27.68-16H472.5z"/>
<path fill="#C1AEAE" d="M424.5,88l-11.6,23.12c-2.72,5.44-8.24,8.88-14.32,8.88h-76.16c-6.08,0-11.6-3.44-14.32-8.88l-3.68-7.28
	c0.64,0.08,1.36,0.16,2,0.16h76.16c6.08,0,11.6-3.44,14.32-8.88l3.6-7.12H424.5z"/>
<path fill="#54917F" d="M380.98,195.52c9.84,0.4,17.6,8.24,17.6,17.76c0,0.48-0.08,0.88-0.08,1.36L394.34,272H366.1l-4.16-57.36
	c-0.8-10.32,7.6-19.12,18.24-19.12C380.42,195.52,380.74,195.52,380.98,195.52z"/>
<path fill="#4B8773" d="M365.541,264.284L366.1,272h28.24l4.16-57.36c0-0.48,0.08-0.88,0.08-1.36c0-4.76-1.94-9.1-5.11-12.299
	C388.2,229.519,391.855,260.855,365.541,264.284z"/>
<path fill="#4B8773" d="M381.62,180.48c0,0.4,0,0.88,0,1.36l-0.64,13.68c-0.24,0-0.56,0-0.8,0c-10.64,0-19.04,8.8-18.24,19.12
	L366.1,272h-39.44l-4.16-90.16c-0.8-16.4,12.64-30.08,29.52-30.08C368.42,151.76,381.62,164.64,381.62,180.48z"/>
<path fill="#2F725A" d="M352.5,248c-5.73,5.73-15.587,7.333-26.587,7.795L326.66,272h39.44l-4.16-57.36
	c-0.8-10.32,7.6-19.12,18.24-19.12c0.24,0,0.56,0,0.8,0l0.64-13.68c0-0.48,0-0.96,0-1.36c0-4.139-0.94-8.053-2.564-11.61
	C357.58,186.156,365.378,222.243,352.5,248z"/>
<path fill="#54917F" d="M206.58,98c0,0.64,0,1.28-0.08,1.92l-6,84.08h-40l-6-84.08C153.38,84.8,165.38,72,180.5,72l1.12,0.08
	C196.18,73.28,206.58,84.48,206.58,98z"/>
<path fill="#4B8773" d="M159.878,175.286L160.5,184h40l6-84.08c0.08-0.64,0.08-1.28,0.08-1.92c0-7.316-3.117-13.884-8.219-18.625
	C183.119,117.517,193.636,168.941,159.878,175.286z"/>
<path fill="#4B8773" d="M182.58,49.92c0,0.64-0.08,1.36-0.08,2L181.62,72v0.08L180.5,72c-15.12,0-27.12,12.8-26,27.92l6,84.08h-56
	l-6-132.08C97.38,28,116.5,8,140.5,8C163.86,8,182.58,26.88,182.58,49.92z"/>
<path fill="#2F725A" d="M104.173,167.955l-0.402,0.005L104.5,184h56l-6-84.08C153.38,84.8,165.38,72,180.5,72l1.12,0.08V72
	l0.88-20.08c0-0.64,0.08-1.36,0.08-2c0-6.033-1.342-11.747-3.656-16.945c-28.26,23.382-33.891,65.091-38.965,103.032
	C137.548,154.03,122.356,167.718,104.173,167.955z"/>
<path fill="#B2E2ED" d="M276.091,104c-15.442,0-15.468,24,0,24C291.534,128,291.56,104,276.091,104z"/>
<path fill="#EAC4B9" d="M119.853,271.922c-1.756-5.314-4.483-14.435-11.632-13.694c-3.033,0.314-5.78,2.549-6.706,5.454
	c-2.033,6.382,3.143,19.813,10.708,20.299c3.053,0.196,6.282-1.54,7.682-4.287C121.118,277.314,120.732,274.586,119.853,271.922z"/>
<path fill="#EAC4B9" d="M343.831,336.217c-1.433-3.179-3.659-8.634-9.495-8.191c-2.475,0.188-4.718,1.524-5.474,3.262
	c-1.659,3.817,2.565,11.851,8.741,12.142c2.492,0.117,5.128-0.921,6.27-2.564C344.864,339.442,344.549,337.81,343.831,336.217z"/>
<path fill="#472B3C" d="M318.305,264h-2.657c-3.742,0-7.359,1.562-9.922,4.285s-3.906,6.43-3.68,10.148l3.109,52.914
	C306.625,356.387,327.43,376,352.508,376h15.984c25.078,0,45.883-19.613,47.352-44.652l3.109-52.902
	c0.227-3.73-1.117-7.438-3.68-10.16s-6.18-4.285-9.922-4.285h-2.43l3.586-48.781c0.523-7.129-1.891-13.961-6.797-19.246
	c-2.872-3.09-6.487-5.311-10.418-6.731l0.333-7.042c0.461-9.957-3.109-19.457-10.062-26.742
	c-7.094-7.43-17.117-11.691-27.516-11.691c-10.391,0-20.422,4.258-27.508,11.688c-6.953,7.289-10.523,16.785-10.062,26.746
	L318.305,264z M399.875,330.41c-0.977,16.594-14.766,29.59-31.383,29.59h-15.984c-16.617,0-30.406-12.996-31.383-29.59L318.164,280
	h7.885c0.221,0.019,0.414,0.125,0.639,0.125c0.125,0,0.258-0.004,0.383-0.008c0.167-0.008,0.302-0.1,0.466-0.117h38.408
	c0.265,0.008,0.504,0.12,0.774,0.102c0.131-0.01,0.235-0.086,0.364-0.102h26.271c0.129,0.016,0.233,0.092,0.364,0.102
	c0.195,0.016,0.398,0.023,0.594,0.023c0.229,0,0.426-0.106,0.651-0.125h7.873L399.875,330.41z M386.882,264h-13.327l-3.672-49.953
	c-0.195-2.645,0.719-5.195,2.562-7.18c4-4.297,11.547-4.297,15.547,0c1.844,1.984,2.758,4.535,2.562,7.18L386.882,264z
	 M336.117,166.5c8.281-8.688,23.57-8.691,31.867,0.004c3.906,4.094,5.914,9.402,5.656,14.941l-0.335,7.112
	c-4.78,1.283-9.188,3.767-12.579,7.416c-4.906,5.285-7.32,12.117-6.797,19.246L357.516,264h-23.191l-3.864-82.551
	C330.203,175.902,332.211,170.594,336.117,166.5z"/>
<path fill="#472B3C" d="M280.5,184c4.422,0,8-3.582,8-8v-24h24c4.422,0,8-3.582,8-8s-3.578-8-8-8h-32c-4.422,0-8,3.582-8,8v32
	C272.5,180.418,276.078,184,280.5,184z"/>
<path fill="#472B3C" d="M320.5,384c0-4.418-3.578-8-8-8h-24v-24c0-4.418-3.578-8-8-8s-8,3.582-8,8v32c0,4.418,3.578,8,8,8h32
	C316.922,392,320.5,388.418,320.5,384z"/>
<path fill="#472B3C" d="M440.5,344c-4.422,0-8,3.582-8,8v24h-24c-4.422,0-8,3.582-8,8s3.578,8,8,8h32c4.422,0,8-3.582,8-8v-32
	C448.5,347.582,444.922,344,440.5,344z"/>
<path fill="#472B3C" d="M408.5,152h24v24c0,4.418,3.578,8,8,8s8-3.582,8-8v-32c0-4.418-3.578-8-8-8h-32c-4.422,0-8,3.582-8,8
	S404.078,152,408.5,152z"/>
<path fill="#472B3C" d="M360.5,392c-17.648,0-32,14.355-32,32s14.352,32,32,32s32-14.355,32-32S378.148,392,360.5,392z M360.5,440
	c-8.82,0-16-7.176-16-16s7.18-16,16-16s16,7.176,16,16S369.32,440,360.5,440z"/>
<path fill="#472B3C" d="M504.5,312h-24V120c0-22.055-17.945-40-40-40h-160c-22.055,0-40,17.945-40,40v192h-34.605
	c12.422-10.926,20.652-26.557,21.691-44.242l4.398-74.812c0.266-4.379-1.312-8.723-4.32-11.918
	c-3.016-3.195-7.258-5.027-11.648-5.027h-6.927l5.396-75.5c0.672-9.402-2.625-18.75-9.047-25.645
	c-4.23-4.543-9.667-7.656-15.545-9.357l0.6-13.182c0.633-13.781-4.273-26.863-13.805-36.84C167.156,5.496,154.305,0,140.5,0
	s-26.656,5.496-36.188,15.477c-9.531,9.977-14.438,23.059-13.805,36.84L96.128,176h-7.144c-4.391,0-8.633,1.832-11.648,5.027
	c-3.008,3.195-4.586,7.539-4.32,11.91l4.398,74.82c1.039,17.685,9.27,33.316,21.691,44.242H8.5c-4.422,0-8,3.582-8,8v48
	c0,4.418,3.578,8,8,8h232v96c0,22.055,17.945,40,40,40h160c22.055,0,40-17.945,40-40v-96h24c4.422,0,8-3.582,8-8v-48
	C512.5,315.582,508.922,312,504.5,312z M411.555,96l-5.789,11.578c-1.367,2.727-4.109,4.422-7.156,4.422h-76.219
	c-3.047,0-5.789-1.695-7.156-4.422L309.445,96H411.555z M198.531,99.359L193.054,176h-25.108l-5.477-76.641
	c-0.359-5.059,1.344-9.891,4.805-13.602c6.906-7.43,19.547-7.43,26.453,0C197.188,89.469,198.891,94.301,198.531,99.359z
	 M93.383,266.82L88.984,192H120.5c4.422,0,8-3.582,8-8s-3.578-8-8-8h-8.355l-5.653-124.41c-0.43-9.375,2.906-18.277,9.391-25.062
	C122.367,19.738,131.109,16,140.5,16s18.133,3.738,24.617,10.527c6.484,6.785,9.82,15.688,9.391,25.062l-0.596,13.096
	c-6.979,1.385-13.444,4.901-18.349,10.169c-6.422,6.895-9.719,16.242-9.047,25.645l5.396,75.5H144.5c-4.422,0-8,3.582-8,8
	s3.578,8,8,8h71.516l-4.398,74.82c-1.492,25.332-22.539,45.18-47.922,45.18h-22.391C115.922,312,94.875,292.152,93.383,266.82z
	 M16.5,360v-32h224v32H16.5z M440.5,496h-160c-10.416,0-19.212-6.708-22.525-16H288.5c4.422,0,8-3.582,8-8s-3.578-8-8-8h-32V120
	c0-13.234,10.766-24,24-24h11.055l9.367,18.734c4.094,8.184,12.32,13.266,21.469,13.266h76.219c9.148,0,17.375-5.082,21.469-13.266
	L429.445,96H440.5c13.234,0,24,10.766,24,24v344h-144c-4.422,0-8,3.582-8,8s3.578,8,8,8h142.526
	C459.713,489.292,450.916,496,440.5,496z M496.5,360h-16v-32h16V360z"/>
<path fill="#472B3C" d="M128.5,48h8c4.422,0,8-3.582,8-8s-3.578-8-8-8h-8c-4.422,0-8,3.582-8,8S124.078,48,128.5,48z"/>
<path fill="#472B3C" d="M128.5,96c4.422,0,8-3.582,8-8v-8c0-4.418-3.578-8-8-8s-8,3.582-8,8v8C120.5,92.418,124.078,96,128.5,96z"/>
<path fill="#472B3C" d="M152.5,64h8c4.422,0,8-3.582,8-8s-3.578-8-8-8h-8c-4.422,0-8,3.582-8,8S148.078,64,152.5,64z"/>
<path fill="#472B3C" d="M168.5,96c0,4.418,3.578,8,8,8h8c4.422,0,8-3.582,8-8s-3.578-8-8-8h-8C172.078,88,168.5,91.582,168.5,96z"/>
<path fill="#472B3C" d="M176.5,128c-4.422,0-8,3.582-8,8v8c0,4.418,3.578,8,8,8s8-3.582,8-8v-8C184.5,131.582,180.922,128,176.5,128
	z"/>
<path fill="#472B3C" d="M136.5,120c0-4.418-3.578-8-8-8h-8c-4.422,0-8,3.582-8,8s3.578,8,8,8h8C132.922,128,136.5,124.418,136.5,120
	z"/>
<path fill="#472B3C" d="M144.5,160v-8c0-4.418-3.578-8-8-8s-8,3.582-8,8v8c0,4.418,3.578,8,8,8S144.5,164.418,144.5,160z"/>
</svg>
