<?xml version="1.0" encoding="utf-8"?>
<!-- Generator: Adobe Illustrator 23.1.0, SVG Export Plug-In . SVG Version: 6.00 Build 0)  -->
<svg version="1.1" id="Layer_1" xmlns="http://www.w3.org/2000/svg" xmlns:xlink="http://www.w3.org/1999/xlink" x="0px" y="0px"
	 viewBox="0 0 700 700" style="enable-background:new 0 0 700 700;" xml:space="preserve">
<style type="text/css">
	.st0{fill:url(#SVGID_1_);}
</style>
<g id="Layer_x0020_1">
	
		<linearGradient id="SVGID_1_" gradientUnits="userSpaceOnUse" x1="127.0496" y1="352.0005" x2="594.9509" y2="352.0005" gradientTransform="matrix(1 0 0 -1 0 702)">
		<stop  offset="0" style="stop-color:#7959DE"/>
		<stop  offset="1" style="stop-color:#000066"/>
	</linearGradient>
	<path class="st0" d="M191.3,518.3h-5.7v64.5h0c0,2-0.7,4-2.2,5.5l0,0l-14,14.8c-0.2,0.2-0.4,0.5-0.7,0.7c-3.2,3-8.3,2.9-11.3-0.3
		l0,0l-14.1-14.8c-1.6-1.5-2.6-3.6-2.6-5.9v-64.5h-5.7c-4.4,0-8-3.6-8-8v-25.8c0-4.4,3.6-8,8-8c0.1,0,0.3,0,0.4,0v0
		c5.5,0,7.3-10.1,0-10.1l-0.3,0v0c-4.4,0.1-8.1-3.5-8.1-7.9v-0.1h0v-25.8c0-4.4,3.6-8,8-8h20.1V226.1c0-57.8,25.4-95,57.8-111.4
		c12.8-6.5,26.7-9.7,40.6-9.7v0c13.9,0,27.8,3.3,40.6,9.7c32.5,16.5,57.8,53.7,57.8,111.4v251.3c2.5,19.6,17.9,32.1,37.1,37.7
		c9.4,2.7,19.7,3.9,30,3.3c10.1-0.5,20.1-2.7,29-6.4c17.2-7.2,30-20.7,30-40v-37.3V228.1h-7.7c-4.4,0-8-3.6-8-8V171
		c-5-3.4-9.2-7.8-12.3-13c-3.9-6.4-6.1-13.9-6.1-21.8c0-11.6,4.7-22.2,12.4-29.8C463.8,98.7,474.4,94,486,94
		c11.6,0,22.2,4.7,29.8,12.4c7.6,7.6,12.4,18.2,12.4,29.8c0,8-2.2,15.4-6.1,21.8c-3.1,5.2-7.3,9.6-12.3,13v49.1c0,4.4-3.6,8-8,8H494
		v198.6h5.3c12.5,0,23.8-5.1,32-13.3c8.2-8.2,13.3-19.6,13.3-32v-32.6H537c-4.4,0-8-3.6-8-8v-49.1c-5-3.4-9.2-7.8-12.3-13
		c-3.9-6.4-6.1-13.9-6.1-21.8c0-11.6,4.7-22.2,12.4-29.8c7.6-7.6,18.2-12.4,29.8-12.4c11.6,0,22.2,4.7,29.8,12.4
		c7.6,7.6,12.4,18.2,12.4,29.8c0,8-2.2,15.4-6.1,21.8c-3.1,5.2-7.3,9.6-12.3,13v49.1c0,4.4-3.6,8-8,8h-7.7v32.6
		c0,16.9-6.9,32.2-18,43.4c-11.1,11.1-26.5,18-43.4,18H494V472c0,26.8-16.9,45.2-39.8,54.8c-10.5,4.4-22.4,7-34.4,7.6
		c-11.9,0.6-24.1-0.7-35.2-4c-25-7.3-45.2-24.2-48.5-51.2c-0.1-0.5-0.1-0.9-0.1-1.4V226.1c0-50.9-21.5-83.2-49-97.2
		c-10.5-5.3-21.9-8-33.4-8v0c-11.4,0-22.8,2.7-33.4,8c-27.5,14-49,46.3-49,97.2v198.6h20.1c4.4,0,8,3.6,8,8v25.8c0,4.4-3.6,8-8,8
		l-0.4,0v0c-7,0-5.6,10.1,0,10.1l0.3,0v0c4.4-0.1,8.1,3.4,8.1,7.9l0,0.1h0v25.8C199.3,514.7,195.7,518.3,191.3,518.3L191.3,518.3z"
		/>
</g>
</svg>
